[
  {
    "duration_time": "0.033367",
    "pts_time": "0.000000"
  },
  {
    "duration_time": "0.033367",
    "pts_time": "0.033367"
  },
  {
    "duration_time": "0.033367",
    "pts_time": "0.066733"
  },
  {
    "duration_time": "0.033367",
    "pts_time": "0.100100"
  },
  {
    "duration_time": "0.033367",
    "pts_time": "0.133467"
  },
  {
    "duration_time": "0.033367",
    "pts_time": "0.166833"
  },
  {
    "duration_time": "0.033367",
    "pts_time": "0.200200"
  },
  {
    "duration_time": "0.033367",
    "pts_time": "0.233567"
  },
  {
    "duration_time": "0.033367",
    "pts_time": "0.266933"
  },
  {
    "duration_time": "0.033367",
    "pts_time": "0.300300"
  },
  {
    "duration_time": "0.033367",
    "pts_time": "0.333667"
  },
  {
    "duration_time": "0.033367",
    "pts_time": "0.367033"
  },
  {
    "duration_time": "0.033367",
    "pts_time": "0.400400"
  },
  {
    "duration_time": "0.033367",
    "pts_time": "0.433767"
  },
  {
    "duration_time": "0.033367",
    "pts_time": "0.467133"
  },
  {
    "duration_time": "0.033367",
    "pts_time": "0.500500"
  },
  {
    "duration_time": "0.033367",
    "pts_time": "0.533867"
  }
]
